<svg width="90" height="58" viewBox="0 0 90 58" fill="none" xmlns="http://www.w3.org/2000/svg">
<path d="M45 57.6562C69.8528 57.6562 90 53.2491 90 47.8125C90 42.3759 69.8528 37.9688 45 37.9688C20.1472 37.9688 0 42.3759 0 47.8125C0 53.2491 20.1472 57.6562 45 57.6562Z" fill="#F5F5F5"/>
<path d="M77.3438 19.35L63.0759 3.17531C62.3911 2.07281 61.3913 1.40625 60.338 1.40625H29.662C28.6088 1.40625 27.6089 2.07281 26.9241 3.17391L12.6562 19.3514V32.3438H77.3438V19.35Z" stroke="#D9D9D9"/>
<path d="M58.5183 23.8092C58.5183 21.5522 59.9161 19.6889 61.65 19.6875H77.3438V45.1927C77.3438 48.1781 75.4875 50.625 73.1953 50.625H16.8047C14.5125 50.625 12.6562 48.1767 12.6562 45.1927V19.6875H28.35C30.0839 19.6875 31.4817 21.548 31.4817 23.805V23.8359C31.4817 26.093 32.895 27.9155 34.6275 27.9155H55.3725C57.105 27.9155 58.5183 26.0761 58.5183 23.8191V23.8092Z" fill="#FAFAFA" stroke="#D9D9D9"/>
</svg>
