<svg width="162" height="64" viewBox="0 0 162 64" fill="none" xmlns="http://www.w3.org/2000/svg">
<path fill-rule="evenodd" clip-rule="evenodd" d="M132.592 0.514431C129.71 2.98645 127.747 6.03658 127.088 9.06823C126.556 11.5156 126.809 13.7002 127.868 15.815C128.605 17.2847 128.836 17.5489 133.322 22.0557C135.661 24.4061 137.614 26.3291 137.662 26.3291C137.78 26.3291 141.916 22.1736 141.916 22.055C141.916 22.0029 140.066 20.0962 137.805 17.8178C135.543 15.5395 133.483 13.3965 133.226 13.0554C132.379 11.9321 131.657 10.2988 131.375 8.87089C131.302 8.50244 131.264 7.76474 131.267 6.76456C131.271 5.36911 131.292 5.14212 131.493 4.33418C131.753 3.28223 131.925 2.80142 132.325 2.00595C132.656 1.34764 133.01 0.796678 133.311 0.470683C133.516 0.24798 133.512 0 133.303 0C133.242 0 132.922 0.231454 132.592 0.514431ZM135.91 3.13924C135.234 3.88026 134.727 4.83313 134.492 5.80707C134.318 6.5267 134.318 7.81254 134.492 8.53217C134.646 9.17031 135.067 10.1207 135.42 10.6268C135.555 10.8196 139.809 15.1149 144.873 20.1722C149.938 25.2294 154.373 29.7134 154.73 30.1367C156.738 32.5199 157.658 34.8138 157.655 37.4278C157.653 39.0598 157.344 40.392 156.687 41.609C156.121 42.6567 156.43 42.6262 157.607 41.5179C159.007 40.2003 160.151 38.7045 160.896 37.2179C162.762 33.4963 162.269 29.8908 159.386 26.1671C158.884 25.5191 157.662 24.2785 145.813 12.3829C140.626 7.17635 136.322 2.91646 136.248 2.91646C136.174 2.91646 136.022 3.01675 135.91 3.13924ZM129.925 24.4861C128.3 26.4764 128.142 29.3515 129.538 31.5362C129.761 31.8852 131.637 33.8241 135.631 37.8329C141.675 43.9006 142.023 44.2841 142.882 45.8389C144.559 48.8731 144.713 52.0651 143.318 54.9121C143.054 55.4519 142.973 55.692 143.036 55.7545C143.171 55.89 143.469 55.6574 144.554 54.5696C146.529 52.5888 147.757 50.5726 148.333 48.3673C148.578 47.4258 148.596 45.3347 148.367 44.3544C147.982 42.7077 147.169 41.1195 145.873 39.4804C145.295 38.7489 130.588 23.9797 130.438 23.9797C130.383 23.9797 130.153 24.2076 129.925 24.4861ZM141.976 26.3904C140.829 27.5381 139.891 28.5122 139.891 28.5549C139.891 28.5978 141.689 30.4386 143.888 32.6455C148.481 37.2569 148.801 37.6255 149.724 39.3828C150.604 41.0555 150.951 42.428 150.943 44.1924C150.935 45.7332 150.66 46.9213 150.007 48.2379C149.688 48.879 149.66 49.0937 149.892 49.0937C150.081 49.0937 152.109 47.0383 152.764 46.1837C155.178 43.0301 155.862 39.8065 154.784 36.6582C154.333 35.3411 153.567 33.9942 152.526 32.6886C151.854 31.8459 144.355 24.3038 144.189 24.3038C144.119 24.3038 143.123 25.2428 141.976 26.3904ZM131.869 39.4272C130.193 41.3358 129.934 44.238 131.241 46.4608C131.486 46.8769 132.041 47.5021 133.328 48.8101C134.384 49.8842 135.243 50.8341 135.49 51.2006C136.375 52.5153 136.954 53.9543 137.185 55.4171C137.347 56.438 137.302 58.5303 137.098 59.4429C136.771 60.9113 136.113 62.4143 135.419 63.2746C135.032 63.7549 134.968 64 135.229 64C135.395 64 136.432 63.0765 137.379 62.0851C139.448 59.9209 140.754 57.6091 141.399 54.9671C141.594 54.172 141.617 53.9187 141.62 52.6177C141.623 51.2848 141.604 51.087 141.403 50.3163C141.011 48.8198 140.532 47.8052 139.62 46.5418C139.114 45.8404 132.457 39.1291 132.268 39.1291C132.192 39.1291 132.013 39.2633 131.869 39.4272Z" fill="url(#paint0_linear_2197_52708)"/>
<path d="M133.303 0C133.512 0 133.516 0.247999 133.311 0.470703C133.01 0.79669 132.656 1.3476 132.325 2.00586C131.926 2.8013 131.753 3.2821 131.492 4.33398C131.292 5.14192 131.272 5.36921 131.268 6.76465C131.265 7.76478 131.302 8.50266 131.375 8.87109C131.657 10.299 132.379 11.9324 133.226 13.0557C133.483 13.3967 135.544 15.5391 137.805 17.8174C140.062 20.0919 141.91 21.9965 141.916 22.0547C141.916 22.1732 137.788 26.3212 137.662 26.3291C137.615 26.3291 135.661 24.4061 133.321 22.0557C128.836 17.5494 128.605 17.2848 127.868 15.8154C126.809 13.7007 126.556 11.5157 127.088 9.06836C127.747 6.03672 129.71 2.98666 132.592 0.514648C132.921 0.232133 133.241 0.00075368 133.303 0Z" fill="url(#paint1_linear_2197_52708)"/>
<path d="M83.653 44.7065H88.8041V42.9097C88.8041 42.5902 88.7242 42.2947 88.5645 42.0232C88.4048 41.7517 88.1852 41.5361 87.9057 41.3763C87.6341 41.2166 87.3386 41.1368 87.0192 41.1368H83.9046V37.3633H87.0192C88.0254 37.3633 88.9518 37.6149 89.7984 38.118C90.6529 38.6131 91.3277 39.284 91.8228 40.1305C92.326 40.977 92.5775 41.9034 92.5775 42.9097V48.48H83.653V44.7065ZM94.9015 32.2722L98.6749 31.3258V48.48H94.9015V32.2722ZM99.3338 51.6065L101.682 50.0253V38.4654L105.467 37.5071V52.0378L101.418 54.7451L99.3338 51.6065ZM108.126 32.2722L111.9 31.3258V48.48H108.126V32.2722ZM104.808 27.0732H111.9V25.9112L115.206 27.0732V29.9961H104.808V27.0732Z" fill="#262626"/>
<path d="M10.0427 20.0698H11.9004L12.201 20.9178L11.9004 21.7734H9.93479L10.0427 20.0698ZM5.81854 20.0698H9.295V18.559C9.295 18.2866 9.2282 18.0348 9.09459 17.8036C8.96098 17.5723 8.77854 17.3899 8.54729 17.2563C8.31604 17.1175 8.06424 17.0482 7.79188 17.0482H6.14229V15.3446H7.79188C8.37771 15.3446 8.91473 15.4885 9.40292 15.7763C9.89625 16.0641 10.2842 16.4546 10.5669 16.948C10.8547 17.4362 10.9985 17.9732 10.9985 18.559V21.7734H5.81854V20.0698ZM11.8773 21.7734L11.6075 20.9255L11.8927 20.0698H11.9081C12.1805 20.0698 12.4323 20.003 12.6635 19.8694C12.8948 19.7307 13.0772 19.5457 13.2108 19.3144C13.3496 19.0832 13.419 18.8314 13.419 18.559V15.9613L15.1225 15.545V18.559C15.1225 18.8314 15.1893 19.0832 15.3229 19.3144C15.4565 19.5457 15.639 19.7307 15.8702 19.8694C16.1015 20.003 16.3558 20.0698 16.6333 20.0698L16.934 20.9255L16.6333 21.7734C16.1657 21.7734 15.7238 21.6732 15.3075 21.4728C14.8913 21.2723 14.5444 21 14.2669 20.6557C13.9842 21 13.6374 21.2723 13.2263 21.4728C12.8151 21.6732 12.3758 21.7734 11.9081 21.7734H11.8773ZM13.4652 12.4694H15.0531V13.9186H13.4652V12.4694ZM16.6102 21.7734L16.3404 20.9255L16.6179 20.0698H16.641C16.9134 20.0698 17.1652 20.003 17.3965 19.8694C17.6277 19.7307 17.8101 19.5457 17.9438 19.3144C18.0825 19.078 18.1519 18.8237 18.1519 18.5513V15.3369H21.3663C21.9521 15.3369 22.4917 15.4808 22.985 15.7686C23.4783 16.0564 23.8689 16.4469 24.1567 16.9403C24.4444 17.4284 24.5883 17.9655 24.5883 18.5513C24.5883 19.1371 24.4444 19.6767 24.1567 20.17C23.8689 20.6634 23.4783 21.0539 22.985 21.3417C22.4917 21.6295 21.9521 21.7734 21.3663 21.7734C20.8986 21.7734 20.4592 21.6732 20.0481 21.4728C19.637 21.2672 19.2927 20.9923 19.0152 20.648C18.7326 20.9974 18.3831 21.2723 17.9669 21.4728C17.5558 21.6732 17.1138 21.7734 16.641 21.7734H16.6102ZM21.3663 20.0698C21.6438 20.0698 21.8981 20.003 22.1294 19.8694C22.3606 19.7307 22.5431 19.5457 22.6767 19.3144C22.8103 19.078 22.8771 18.8237 22.8771 18.5513C22.8771 18.2789 22.8103 18.0271 22.6767 17.7959C22.5431 17.5646 22.3606 17.3822 22.1294 17.2486C21.8981 17.115 21.6438 17.0482 21.3663 17.0482H19.8708V18.5513C19.8708 18.8237 19.9376 19.078 20.0713 19.3144C20.2049 19.5457 20.3847 19.7307 20.6108 19.8694C20.8421 20.003 21.0939 20.0698 21.3663 20.0698ZM26.0683 21.7734C25.6007 21.7734 25.1613 21.6732 24.7502 21.4728C24.3391 21.2723 23.9922 20.9974 23.7096 20.648L23.1931 19.3915L23.7635 18.3046L24.5883 18.559C24.5883 18.8314 24.6551 19.0832 24.7888 19.3144C24.9224 19.5457 25.1048 19.7307 25.336 19.8694C25.5673 20.003 25.8217 20.0698 26.0992 20.0698L26.369 20.9255L26.0683 21.7734ZM26.0375 21.7734L25.7754 20.9255L26.0529 20.0698H26.076C26.3484 20.0698 26.6002 20.003 26.8315 19.8694C27.0627 19.7307 27.2451 19.5457 27.3788 19.3144C27.5175 19.0832 27.5869 18.8314 27.5869 18.559V16.1309H29.2904V18.8596C29.2904 19.0755 29.3444 19.2759 29.4523 19.4609C29.5654 19.6459 29.7144 19.7949 29.8994 19.908C30.0844 20.0159 30.2848 20.0698 30.5006 20.0698C30.7216 20.0698 30.9246 20.0159 31.1096 19.908C31.2946 19.8 31.441 19.6536 31.549 19.4686C31.6569 19.2784 31.7108 19.0755 31.7108 18.8596V16.1309H33.4144V18.8596C33.4144 19.0755 33.4683 19.2759 33.5763 19.4609C33.6893 19.6459 33.8383 19.7949 34.0233 19.908C34.2083 20.0159 34.4088 20.0698 34.6246 20.0698C34.8456 20.0698 35.0485 20.0159 35.2335 19.908C35.4237 19.8 35.5727 19.6536 35.6806 19.4686C35.7885 19.2784 35.8425 19.0755 35.8425 18.8596V16.0153L37.546 15.5913V18.8519C37.546 19.3761 37.415 19.8643 37.1529 20.3165C36.8908 20.7636 36.5363 21.1182 36.0892 21.3803C35.6421 21.6423 35.1539 21.7734 34.6246 21.7734C34.2597 21.7734 33.8923 21.686 33.5223 21.5113C33.1523 21.3366 32.8337 21.1207 32.5665 20.8638C32.3095 21.1464 32.0012 21.37 31.6415 21.5344C31.2817 21.6937 30.9015 21.7734 30.5006 21.7734C30.1152 21.7734 29.7247 21.6732 29.329 21.4728C28.9333 21.2723 28.6121 21.0359 28.3654 20.7636C28.0776 21.0822 27.7333 21.3314 27.3325 21.5113C26.9368 21.686 26.518 21.7734 26.076 21.7734H26.0375ZM30.8321 12.8625H32.9519V11.3671L34.4088 11.8142V14.25H30.8321V12.8625ZM39.6967 23.9548L42.9804 21.7734H41.7625C41.2743 21.7734 40.7938 21.6295 40.321 21.3417C39.8534 21.0488 39.468 20.6582 39.1648 20.17C38.8667 19.6767 38.7177 19.1423 38.7177 18.5667C38.7177 17.986 38.8616 17.449 39.1494 16.9557C39.4372 16.4623 39.8277 16.0718 40.321 15.784C40.8144 15.4911 41.3514 15.3446 41.9321 15.3446H45.1542V22.3746L40.6448 25.3809L39.6967 23.9548ZM43.4506 20.0698V17.0405H41.9321C41.6597 17.0405 41.4079 17.1098 41.1767 17.2486C40.9454 17.3822 40.7604 17.5646 40.6217 17.7959C40.4881 18.0271 40.4213 18.2789 40.4213 18.5513C40.4213 18.8288 40.4881 19.0832 40.6217 19.3144C40.7604 19.5457 40.9454 19.7307 41.1767 19.8694C41.4079 20.003 41.6597 20.0698 41.9321 20.0698H43.4506ZM44.5529 20.0698H45.9327L46.2333 20.9255L45.9327 21.7734H44.5529V20.0698ZM45.6321 20.9255L45.9327 20.0698H47.2663C47.0967 19.8694 46.9631 19.6382 46.8654 19.3761C46.7729 19.114 46.7267 18.8416 46.7267 18.559C46.7267 18.2764 46.7729 18.0066 46.8654 17.7496C46.9631 17.4927 47.0967 17.2589 47.2663 17.0482H46.7113V15.3446H54.1806C54.7665 15.3446 55.306 15.4885 55.7994 15.7763C56.2927 16.0641 56.6833 16.4546 56.971 16.948C57.2588 17.4413 57.4027 17.9783 57.4027 18.559C57.4027 19.1397 57.2588 19.6767 56.971 20.17C56.6833 20.6634 56.2927 21.0539 55.7994 21.3417C55.306 21.6295 54.7665 21.7734 54.1806 21.7734H45.9327L45.6321 20.9255ZM49.941 20.0698C50.2134 20.0698 50.4652 20.003 50.6965 19.8694C50.9277 19.7358 51.1101 19.5534 51.2438 19.3221C51.3825 19.0909 51.4519 18.8365 51.4519 18.559C51.4519 18.2866 51.3825 18.0348 51.2438 17.8036C51.1101 17.5723 50.9277 17.3899 50.6965 17.2563C50.4652 17.1175 50.2134 17.0482 49.941 17.0482C49.6687 17.0482 49.4169 17.1175 49.1856 17.2563C48.9544 17.3899 48.7719 17.5723 48.6383 17.8036C48.5047 18.0348 48.4379 18.2866 48.4379 18.559C48.4379 18.8365 48.5047 19.0909 48.6383 19.3221C48.7719 19.5534 48.9544 19.7358 49.1856 19.8694C49.4169 20.003 49.6687 20.0698 49.941 20.0698ZM54.1806 20.0698C54.4581 20.0698 54.7125 20.003 54.9438 19.8694C55.175 19.7358 55.3574 19.5534 55.491 19.3221C55.6298 19.0909 55.6992 18.8365 55.6992 18.559C55.6992 18.2866 55.6298 18.0348 55.491 17.8036C55.3574 17.5723 55.175 17.3899 54.9438 17.2563C54.7125 17.1175 54.4581 17.0482 54.1806 17.0482H52.6313C52.8008 17.2589 52.9319 17.4927 53.0244 17.7496C53.1169 18.0066 53.1631 18.2764 53.1631 18.559C53.1631 18.8416 53.1143 19.114 53.0167 19.3761C52.9242 19.6382 52.7957 19.8694 52.6313 20.0698H54.1806Z" fill="#262626"/>
<path d="M64.4141 21.7734C63.8334 21.7734 63.2938 21.6295 62.7953 21.3417C62.302 21.0539 61.9089 20.6634 61.616 20.17C61.3282 19.6767 61.1843 19.1397 61.1843 18.559V15.9613L62.9033 15.545V18.559C62.9033 18.8314 62.9701 19.0832 63.1037 19.3144C63.2424 19.5457 63.4274 19.7307 63.6587 19.8694C63.8899 20.003 64.1417 20.0698 64.4141 20.0698H71.6368C71.9092 20.0698 72.1584 20.003 72.3845 19.8694C72.6158 19.7307 72.7982 19.5457 72.9318 19.3144C73.0705 19.0832 73.1399 18.8314 73.1399 18.559V15.9613L74.8512 15.545V18.559C74.8512 19.1397 74.7073 19.6767 74.4195 20.17C74.1317 20.6634 73.7412 21.0539 73.2478 21.3417C72.7545 21.6295 72.2175 21.7734 71.6368 21.7734H64.4141ZM66.241 15.73H69.8176V17.1253H66.241V15.73ZM79.6535 21.7734C79.0676 21.7734 78.528 21.6295 78.0347 21.3417C77.5414 21.0488 77.1508 20.6582 76.863 20.17C76.5753 19.6767 76.4314 19.1397 76.4314 18.559V11.9453L78.1349 11.5136V18.559C78.1349 18.8314 78.2017 19.0832 78.3353 19.3144C78.4741 19.5457 78.6591 19.7307 78.8903 19.8694C79.1267 20.003 79.3811 20.0698 79.6535 20.0698L79.9541 20.9255L79.6535 21.7734ZM79.3528 20.9255L79.6535 20.0698H80.6787V11.6446L82.3899 11.213V15.3446H87.8397C88.4204 15.3446 88.9549 15.4885 89.443 15.7763C89.9364 16.0641 90.3269 16.4546 90.6147 16.948C90.9076 17.4413 91.0541 17.9783 91.0541 18.559C91.0541 19.15 90.9102 19.6921 90.6224 20.1855C90.3398 20.6737 89.9518 21.0616 89.4585 21.3494C88.9703 21.6321 88.4307 21.7734 87.8397 21.7734H79.6535L79.3528 20.9255ZM87.8397 20.0698C88.1121 20.0698 88.3639 20.003 88.5951 19.8694C88.8264 19.7307 89.0088 19.5457 89.1424 19.3144C89.276 19.0832 89.3428 18.8314 89.3428 18.559C89.3428 18.2866 89.276 18.0348 89.1424 17.8036C89.0088 17.5723 88.8264 17.3899 88.5951 17.2563C88.3639 17.1175 88.1121 17.0482 87.8397 17.0482H82.3899V20.0698H87.8397ZM95.8564 21.7734C95.2705 21.7734 94.731 21.6295 94.2376 21.3417C93.7443 21.0488 93.3537 20.6582 93.066 20.17C92.7782 19.6767 92.6343 19.1397 92.6343 18.559V11.9453L94.3378 11.5136V18.559C94.3378 18.8314 94.4046 19.0832 94.5383 19.3144C94.677 19.5457 94.862 19.7307 95.0933 19.8694C95.3296 20.003 95.584 20.0698 95.8564 20.0698L96.157 20.9255L95.8564 21.7734ZM95.8255 21.7734L95.5558 20.9255L95.841 20.0698H95.8564C96.1287 20.0698 96.3805 20.003 96.6118 19.8694C96.843 19.7307 97.0255 19.5457 97.1591 19.3144C97.2978 19.0832 97.3672 18.8314 97.3672 18.559V15.9613L99.0708 15.545V18.559C99.0708 18.8314 99.1376 19.0832 99.2712 19.3144C99.4048 19.5457 99.5872 19.7307 99.8185 19.8694C100.05 20.003 100.304 20.0698 100.582 20.0698L100.882 20.9255L100.582 21.7734C100.114 21.7734 99.672 21.6732 99.2558 21.4728C98.8395 21.2723 98.4926 21 98.2151 20.6557C97.9325 21 97.5856 21.2723 97.1745 21.4728C96.7634 21.6732 96.324 21.7734 95.8564 21.7734H95.8255ZM95.3785 23.3536H96.9664V24.8028H95.3785V23.3536ZM100.289 20.9255L100.589 20.0698H101.8C102.072 20.0698 102.324 20.003 102.555 19.8694C102.786 19.7307 102.969 19.5457 103.102 19.3144C103.241 19.0832 103.31 18.8314 103.31 18.559V15.9613L105.014 15.545V18.559C105.014 19.1397 104.87 19.6767 104.582 20.17C104.294 20.6634 103.904 21.0539 103.411 21.3417C102.917 21.6295 102.38 21.7734 101.8 21.7734H100.589L100.289 20.9255ZM101.776 12.5311H105.353V13.9263H101.776V12.5311ZM105.492 23.9471L106.864 23.0221V15.969L108.575 15.5373V23.9394L106.432 25.3655L105.492 23.9471ZM110.379 11.9453L112.098 11.5136V21.7734H110.379V11.9453Z" fill="#262626"/>
<path d="M32.5422 47.56C31.7447 47.56 30.9793 47.4133 30.246 47.12C29.5218 46.8175 28.8847 46.4004 28.3347 45.8687L27.6197 41.2075L30.5072 39.42L30.521 41.1662C30.521 41.5421 30.6127 41.8904 30.796 42.2112C30.9793 42.5229 31.2222 42.7704 31.5247 42.9537C31.8364 43.1371 32.1756 43.2287 32.5422 43.2287L33.3122 45.4012L32.5422 47.56ZM10.666 47.56C9.51099 47.56 8.44307 47.2758 7.46224 46.7075C6.48141 46.13 5.70224 45.3508 5.12474 44.37C4.55641 43.3892 4.27224 42.3212 4.27224 41.1662V36.0512L8.60349 34.9787V41.1662C8.60349 41.5421 8.69516 41.8904 8.87849 42.2112C9.07099 42.5229 9.32307 42.7704 9.63474 42.9537C9.95557 43.1371 10.2993 43.2287 10.666 43.2287H24.1272C24.4939 43.2287 24.8331 43.1371 25.1447 42.9537C25.4564 42.7704 25.7039 42.5229 25.8872 42.2112C26.0797 41.8904 26.176 41.5421 26.176 41.1662V36.0512L30.521 34.9787V41.1662C30.521 42.3212 30.2322 43.3892 29.6547 44.37C29.0864 45.3508 28.3118 46.13 27.331 46.7075C26.3502 47.2758 25.2822 47.56 24.1272 47.56H10.666ZM13.7322 35.1437H21.1435V38.485H13.7322V35.1437ZM31.786 45.1812L32.556 43.2287H35.7872L34.2885 39.8325V34.7725H42.4285C43.2352 34.7725 43.9822 34.9742 44.6697 35.3775C45.3664 35.7717 45.9164 36.3171 46.3197 37.0137C46.7414 37.7196 46.9522 38.4804 46.9522 39.2962C46.9522 40.0662 46.7597 40.8042 46.3747 41.51L45.1235 43.2287H48.3685L49.1247 45.4012L48.3685 47.56H32.556L31.786 45.1812ZM42.621 39.805C42.7127 39.6767 42.7585 39.5392 42.7585 39.3925C42.7585 39.2183 42.6943 39.0671 42.566 38.9387C42.4468 38.8104 42.291 38.7462 42.0985 38.7462H38.5922V39.2962L40.3935 43.0637L42.621 39.805ZM48.286 47.56L47.571 45.4012L48.2997 43.2287H48.341C48.7077 43.2287 49.0468 43.1371 49.3585 42.9537C49.6793 42.7704 49.9314 42.5229 50.1147 42.2112C50.3072 41.8904 50.4035 41.5421 50.4035 41.1662V36.0512L54.7347 34.9787V41.1662C54.7347 41.5421 54.8264 41.8904 55.0097 42.2112C55.1931 42.5229 55.4406 42.7704 55.7522 42.9537C56.0639 43.1371 56.4031 43.2287 56.7697 43.2287L57.5535 45.4012L56.7697 47.56C55.9722 47.56 55.2068 47.4133 54.4735 47.12C53.7493 46.8175 53.1122 46.4004 52.5622 45.8687C52.0031 46.4004 51.3614 46.8175 50.6372 47.12C49.9131 47.4133 49.1477 47.56 48.341 47.56H48.286ZM51.146 28.7225H54.6797V32.1187H51.146V28.7225ZM56.0135 45.36L56.7835 43.2287H58.3647V35.845L62.7235 34.7587V38.6775L66.4222 34.8H71.7847C72.9397 34.8 74.0077 35.0887 74.9885 35.6662C75.9693 36.2346 76.7439 37.0092 77.3122 37.99C77.8897 38.9617 78.1785 40.0204 78.1785 41.1662C78.1785 42.3212 77.8897 43.3892 77.3122 44.37C76.7347 45.3508 75.9556 46.13 74.9747 46.7075C74.0031 47.2758 72.9443 47.56 71.7985 47.56H56.7835L56.0135 45.36ZM71.7847 43.2287C72.1514 43.2287 72.4906 43.1371 72.8022 42.9537C73.1231 42.7704 73.3752 42.5229 73.5585 42.2112C73.751 41.8904 73.8472 41.5421 73.8472 41.1662C73.8472 40.7996 73.751 40.4604 73.5585 40.1487C73.3752 39.8371 73.1231 39.5896 72.8022 39.4062C72.4906 39.2229 72.1514 39.1312 71.7847 39.1312H67.6185L63.686 43.2287H71.7847Z" fill="#262626"/>
<defs>
<linearGradient id="paint0_linear_2197_52708" x1="135.649" y1="3.32152" x2="160.925" y2="38.1165" gradientUnits="userSpaceOnUse">
<stop stop-color="#275CAC"/>
<stop offset="0.395887" stop-color="#2659B1"/>
<stop offset="0.909638" stop-color="#4DC2CB"/>
</linearGradient>
<linearGradient id="paint1_linear_2197_52708" x1="111.224" y1="7.61521" x2="142.008" y2="11.2607" gradientUnits="userSpaceOnUse">
<stop stop-color="#2F7ABE"/>
<stop offset="0.548209" stop-color="#2A68B5"/>
<stop offset="1" stop-color="#53C6CD"/>
</linearGradient>
</defs>
</svg>
