<svg width="148" height="160" viewBox="0 0 148 160" fill="none" xmlns="http://www.w3.org/2000/svg">
<path d="M146.827 41.2469C146.258 32.5833 144.927 22.9812 138.22 17.4651C128.561 9.52305 110.241 10.16 98.5227 8.98114C78.2779 6.94521 57.9925 6.20626 37.6899 5.09234C-3.45556 2.8384 6.86388 51.5577 5.63501 78.6686C4.94537 93.8854 4.97127 111.054 15.773 121.796C27.7155 133.672 46.8963 132.15 63.6273 134.092C66.4341 134.418 69.3819 134.931 71.5441 136.751C73.3227 138.247 74.3346 140.433 75.4954 142.446C80.7878 151.634 90.3268 158.255 100.785 160C97.4703 151.332 96.803 141.672 98.8953 132.631C114.182 134.904 133.131 135.621 141.396 122.562C144.609 117.486 145.381 111.284 145.94 105.302C147.932 84.0188 148.228 62.5771 146.827 41.2469Z" fill="#1E3A8A"/>
<path d="M0.617351 73.6517C-0.0722913 88.8686 -0.0463896 106.037 10.7545 116.778C22.6976 128.655 41.8787 127.134 58.6094 129.075C61.4164 129.401 64.3641 129.915 66.5263 131.734C68.304 133.23 69.3168 135.416 70.4766 137.43C75.7698 146.617 85.3089 153.238 95.7666 154.983C92.4516 146.315 91.7852 136.655 93.8773 127.614C109.164 129.887 128.113 130.604 136.378 117.545C139.591 112.469 140.363 106.266 140.922 100.285C142.913 79.0018 143.21 57.5601 141.809 36.23C141.24 27.5655 139.909 17.9642 133.202 12.4481C123.544 4.50605 105.224 5.14302 93.5041 3.96435C73.2602 1.92735 52.9748 1.18947 32.6723 0.0755403C-8.47322 -2.17821 1.8464 46.5409 0.617351 73.6517Z" fill="#BFDBFE"/>
<path d="M7.5863 92.2206C8.24401 97.7204 9.62578 103.225 12.5147 108.004C15.2456 112.523 19.2623 116.092 23.9983 118.405C28.6158 120.66 33.685 121.772 38.7502 122.454C44.0538 123.167 49.4031 123.419 54.7344 123.845C56.0246 123.949 57.3142 124.063 58.6017 124.197C59.9819 124.34 61.3681 124.486 62.7231 124.797C64.0843 125.11 65.4418 125.598 66.5514 126.471C67.6716 127.353 68.4536 128.561 69.1536 129.783C69.5053 130.396 69.8398 131.02 70.1914 131.632C70.4793 132.134 71.2553 131.682 70.9674 131.18C70.2492 129.929 69.6037 128.626 68.7326 127.47C67.8832 126.344 66.84 125.428 65.5618 124.816C63.0669 123.624 60.19 123.446 57.4765 123.186C52.1789 122.68 46.8564 122.461 41.564 121.895C36.4825 121.349 31.3655 120.485 26.5987 118.581C21.8464 116.684 17.5868 113.627 14.562 109.468C11.3213 105.011 9.61974 99.6733 8.76833 94.2773C8.65942 93.5937 8.56613 92.9074 8.48401 92.2204C8.45456 91.9776 8.29811 91.7738 8.03452 91.7711C7.8144 91.7688 7.55685 91.9795 7.5863 92.2206Z" fill="#3B1942"/>
<path d="M135.315 86.0152C135.892 76.4045 136.09 66.772 135.904 57.1458C135.81 52.308 135.62 47.4711 135.333 42.6411C135.107 38.8309 134.853 35.0042 134.068 31.2604C133.341 27.7897 132.133 24.3209 129.977 21.4664C127.996 18.8437 125.298 16.9569 122.313 15.6323C115.996 12.8279 108.884 12.1642 102.067 11.6743C98.8392 11.4426 95.6046 11.2906 92.3811 11.0071C87.7861 10.6027 83.199 10.1447 78.5989 9.79903C77.4399 9.71176 76.2802 9.62786 75.1214 9.54662C74.5442 9.506 74.5467 10.4048 75.1214 10.4445C79.9117 10.7798 84.6994 11.1636 89.4801 11.6241C92.777 11.9421 96.073 12.1798 99.3786 12.3916C106.154 12.8263 113.123 13.2825 119.588 15.5191C122.571 16.5518 125.499 18.0322 127.759 20.2749C130.235 22.7327 131.741 25.9561 132.666 29.2825C133.629 32.7497 134.017 36.3464 134.264 39.9269C134.586 44.6022 134.8 49.2871 134.931 53.9709C135.199 63.4945 135.091 73.0283 134.609 82.5421C134.551 83.7002 134.486 84.8581 134.417 86.0154C134.382 86.5925 135.28 86.5908 135.315 86.0152Z" fill="#3B1942"/>
<path d="M87.3613 43.9436C87.3596 47.9058 88.9749 51.5192 91.5735 54.1126C94.1669 56.7112 97.7794 58.3263 101.743 58.3246C105.706 58.3263 109.318 56.7112 111.912 54.1126C114.51 51.5192 116.125 47.9058 116.124 43.9436C116.124 42.4554 114.918 41.2488 113.43 41.2488C111.942 41.2488 110.735 42.4554 110.735 43.9436C110.734 46.435 109.733 48.6664 108.101 50.3024C106.465 51.9339 104.234 52.9346 101.743 52.9364C99.2511 52.9346 97.0197 51.9339 95.3837 50.3024C93.7521 48.6664 92.7515 46.435 92.7497 43.9436C92.7497 42.4554 91.5434 41.2488 90.0552 41.2488C88.567 41.2488 87.3613 42.4554 87.3613 43.9436Z" fill="#3B1942"/>
<path d="M26.8574 43.9436C26.8565 47.9067 28.4717 51.5192 31.0705 54.1126C33.6648 56.7112 37.2771 58.3263 41.2395 58.3246C45.2027 58.3263 48.8151 56.7112 51.4094 54.1126C54.008 51.5192 55.6232 47.9067 55.6215 43.9436C55.6215 42.4554 54.4151 41.2488 52.9278 41.2488C51.4396 41.2488 50.2333 42.4554 50.2333 43.9436C50.2315 46.435 49.2307 48.6664 47.5992 50.3024C45.9633 51.9339 43.7318 52.9346 41.2395 52.9364C38.7479 52.9346 36.5167 51.9339 34.8807 50.3024C33.2492 48.6664 32.2476 46.435 32.2467 43.9436C32.2467 42.4554 31.0402 41.2488 29.552 41.2488C28.0638 41.2488 26.8574 42.4554 26.8574 43.9436Z" fill="#3B1942"/>
<path d="M113.81 76.9964L114.527 77.7769L113.813 76.994L113.81 76.9964L114.527 77.7769L113.813 76.994C113.79 77.0165 109.327 81.0773 101.768 85.0933C97.9901 87.1018 93.4402 89.0998 88.2895 90.5922C83.1371 92.0847 77.3868 93.0716 71.1852 93.0716C64.9335 93.0707 58.2223 92.0717 51.1591 89.556C44.0969 87.0395 36.6777 83.0019 29.0356 76.879C27.8741 75.9483 26.1784 76.1358 25.2477 77.2964C24.3179 78.4578 24.5045 80.1534 25.666 81.0841C33.7332 87.5491 41.6925 91.9037 49.3502 94.6322C57.008 97.3613 64.358 98.4605 71.185 98.4598C78.0132 98.4598 84.3166 97.3648 89.92 95.7298C98.326 93.2754 105.162 89.6138 109.921 86.5588C114.68 83.5021 117.364 81.047 117.453 80.9667C118.55 79.9606 118.623 78.2556 117.617 77.1598C116.611 76.0631 114.907 75.9905 113.81 76.9964Z" fill="#3B1942"/>
<path d="M34.906 6.7207C29.9196 6.71982 24.8209 7.52619 20.3634 9.86207C17.9341 11.1349 15.7321 12.7985 13.9095 14.8536C11.75 17.2881 10.1426 20.1943 9.026 23.2414C7.58357 27.1771 6.92515 31.3692 6.70308 35.5424C6.55532 38.3061 6.62628 41.0783 6.63834 43.8447C6.65129 46.6066 6.66087 49.3687 6.66867 52.1316C6.69191 60.1911 6.69723 68.2505 6.66956 76.3093C6.66264 78.4776 6.65323 80.6458 6.6394 82.8141C6.63337 83.7466 6.55994 84.7049 6.61777 85.6356L6.61688 85.7463C6.60907 86.4663 8.27516 86.6788 8.76011 86.7306C9.10138 86.7669 11.0683 86.9658 11.0752 86.2831C11.1002 83.8399 11.1098 81.396 11.1201 78.9529C11.1505 71.6686 11.1522 64.3843 11.1375 57.0999C11.1272 51.7013 11.1081 46.3017 11.0804 40.9031C11.0579 36.2684 11.3103 31.6397 12.4545 27.1296C13.9764 21.1294 17.1229 15.5864 22.3539 12.0993C22.6158 11.9239 22.8827 11.7563 23.1525 11.5911C23.1489 11.5938 23.4134 11.4347 23.2717 11.5184C23.1309 11.6023 23.3953 11.4475 23.3927 11.4492C23.5404 11.3645 23.69 11.2816 23.8395 11.2004C24.3917 10.9004 24.9561 10.6248 25.5297 10.3708C26.0794 10.1287 26.6367 9.90747 27.202 9.70615C27.4803 9.60753 27.7604 9.51334 28.043 9.42341C28.182 9.37924 28.322 9.33613 28.463 9.29462L28.6306 9.2446C29.0247 9.12718 28.4335 9.29462 28.6842 9.22899C29.7843 8.94377 30.8879 8.69934 32.0114 8.53154C32.148 8.51079 32.2837 8.49182 32.4201 8.47284C32.5774 8.4512 33.0812 8.4253 32.4426 8.46858C32.7372 8.44871 33.032 8.40206 33.3258 8.37528C33.846 8.32685 34.3681 8.29227 34.891 8.26903C35.1441 8.25786 35.3974 8.25077 35.6514 8.24385C36.1085 8.2309 35.0914 8.24562 35.5572 8.24474C35.6799 8.24385 35.8027 8.24296 35.9253 8.24296C36.2623 8.24296 37.9301 8.27312 37.588 7.55067C37.4472 7.25161 36.8785 7.07884 36.6149 6.99937C36.0668 6.83388 35.4792 6.72141 34.906 6.7207Z" fill="white"/>
<path d="M67.2377 8.31939C61.9583 7.97368 56.6772 7.66007 51.3944 7.37396C49.1016 7.25032 46.8081 7.1329 44.5144 7.02665C44.1748 7.01104 42.5138 7.00592 42.8517 7.71968C42.9935 8.01785 43.5621 8.1906 43.8248 8.27007C44.3805 8.43857 44.9543 8.52249 45.5342 8.54927C52.5507 8.87334 59.5637 9.28804 66.574 9.73308C67.1348 9.76944 67.6957 9.80492 68.2566 9.84199C68.5987 9.86363 70.2554 9.85849 69.9193 9.14898C69.7785 8.85081 69.2098 8.67805 68.9471 8.59752C68.3878 8.42919 67.8192 8.35753 67.2377 8.31939Z" fill="white"/>
<path d="M99.5581 121.431C100.714 121.777 101.916 122 103.104 122.2C106.05 122.692 109.031 122.935 112.018 122.778C115.86 122.576 119.71 121.833 123.212 120.191C127.358 118.246 130.89 115.206 133.341 111.326C136.497 106.328 137.835 100.383 138.21 94.5436C138.268 93.6388 138.303 92.7322 138.319 91.8258C138.366 89.273 134.223 90.5753 134.186 92.6121C134.126 95.866 133.812 99.1082 133.105 102.288C133.003 102.747 133.181 101.995 133.068 102.448C133.027 102.612 132.986 102.776 132.943 102.939C132.854 103.28 132.761 103.619 132.66 103.957C132.469 104.605 132.258 105.247 132.025 105.88C131.81 106.464 131.577 107.04 131.324 107.608C131.205 107.873 131.082 108.137 130.955 108.397C130.893 108.526 130.827 108.652 130.764 108.781C130.656 109.006 130.977 108.384 130.857 108.601L130.734 108.834C130.21 109.808 129.619 110.746 128.96 111.635C128.808 111.84 128.65 112.041 128.492 112.242C128.176 112.642 128.772 111.917 128.548 112.175C128.447 112.293 128.347 112.413 128.244 112.53C127.911 112.91 127.566 113.277 127.206 113.63C126.856 113.974 126.493 114.306 126.12 114.624C126.03 114.699 125.938 114.773 125.849 114.849C126.472 114.308 126.132 114.62 125.974 114.744C125.769 114.904 125.562 115.06 125.352 115.213C124.983 115.48 124.604 115.735 124.219 115.977C124.029 116.096 123.836 116.212 123.641 116.325C123.43 116.448 122.596 116.875 123.44 116.449C122.631 116.857 121.82 117.245 120.973 117.57C120.546 117.734 120.114 117.886 119.678 118.026C119.577 118.058 119.474 118.089 119.372 118.121C119.061 118.219 119.976 117.947 119.527 118.074C119.31 118.135 119.093 118.196 118.875 118.253C117.211 118.686 115.536 118.897 113.832 119.09C113.804 119.094 114.41 119.05 114.128 119.067L113.98 119.077C113.883 119.083 113.784 119.091 113.687 119.096C113.48 119.109 113.274 119.12 113.067 119.129C112.673 119.146 112.28 119.156 111.886 119.16C111.134 119.168 110.382 119.152 109.631 119.115C108.3 119.05 106.973 118.917 105.656 118.723C105.528 118.704 105.401 118.685 105.274 118.665L105.076 118.633C104.786 118.588 105.63 118.728 105.285 118.667C105.029 118.623 104.774 118.578 104.518 118.531C104.105 118.452 103.692 118.367 103.28 118.275C102.831 118.174 102.387 118.052 101.94 117.941L101.881 117.924C100.846 117.615 99.5475 118.236 99.0022 119.141C98.5194 119.94 98.4779 121.109 99.5581 121.431Z" fill="white"/>
</svg>
